<svg width="26" height="26" viewBox="0 0 26 26" fill="none" xmlns="http://www.w3.org/2000/svg">
<g clip-path="url(#clip0_47_2)">
<path d="M22.8316 19.7108C22.4683 20.5502 22.0382 21.3229 21.5399 22.0333C20.8606 23.0017 20.3044 23.6721 19.8758 24.0444C19.2114 24.6554 18.4995 24.9683 17.7372 24.9861C17.19 24.9861 16.53 24.8304 15.7617 24.5145C14.991 24.2001 14.2827 24.0444 13.635 24.0444C12.9557 24.0444 12.2272 24.2001 11.448 24.5145C10.6676 24.8304 10.0389 24.995 9.55827 25.0113C8.82726 25.0425 8.09861 24.7206 7.37131 24.0444C6.9071 23.6395 6.32647 22.9454 5.6309 21.9621C4.88461 20.9121 4.27106 19.6945 3.79039 18.3063C3.27561 16.8069 3.01755 15.3549 3.01755 13.9493C3.01755 12.3391 3.36548 10.9503 4.06238 9.78654C4.61009 8.85175 5.33873 8.11435 6.25068 7.57303C7.16264 7.0317 8.148 6.75585 9.20915 6.7382C9.78978 6.7382 10.5512 6.9178 11.4974 7.27077C12.441 7.62494 13.0468 7.80454 13.3124 7.80454C13.511 7.80454 14.184 7.59453 15.325 7.17586C16.4039 6.78758 17.3145 6.62682 18.0605 6.69014C20.082 6.85328 21.6007 7.65015 22.6107 9.08578C20.8028 10.1812 19.9085 11.7154 19.9263 13.6836C19.9426 15.2167 20.4987 16.4925 21.5918 17.5054C22.0871 17.9756 22.6403 18.3389 23.2558 18.597C23.1223 18.9841 22.9814 19.3548 22.8316 19.7108ZM18.1955 1.4673C18.1955 2.66891 17.7565 3.79085 16.8815 4.82931C15.8255 6.06384 14.5483 6.7772 13.1632 6.66463C13.1456 6.52048 13.1353 6.36876 13.1353 6.20933C13.1353 5.05578 13.6375 3.82126 14.5293 2.81187C14.9745 2.30079 15.5408 1.87584 16.2274 1.53685C16.9126 1.20292 17.5607 1.01825 18.1703 0.986626C18.1881 1.14726 18.1955 1.30791 18.1955 1.46728V1.4673Z" fill="white"/>
</g>
<defs>
<clipPath id="clip0_47_2">
<rect width="25.0714" height="25.0714" fill="white" transform="translate(0.600929 0.464287)"/>
</clipPath>
</defs>
</svg>
