<svg width="16" height="24" viewBox="0 0 16 24" fill="none" xmlns="http://www.w3.org/2000/svg">
<path d="M15.4012 1.50495C15.4007 1.90264 15.2029 2.28392 14.8512 2.56495L5.26118 10.237C4.97091 10.4691 4.74065 10.7447 4.58356 11.0481C4.42646 11.3515 4.3456 11.6766 4.3456 12.005C4.3456 12.3333 4.42646 12.6585 4.58356 12.9618C4.74065 13.2652 4.97091 13.5408 5.26118 13.773L14.8387 21.435C15.1802 21.7179 15.3692 22.0968 15.3649 22.4901C15.3607 22.8834 15.1635 23.2596 14.8158 23.5377C14.4682 23.8158 13.9979 23.9735 13.5063 23.977C13.0147 23.9804 12.5411 23.8292 12.1874 23.556L2.60993 15.9C1.32214 14.8677 0.598877 13.4689 0.598877 12.0105C0.598877 10.552 1.32214 9.15322 2.60993 8.12095L12.1999 0.443953C12.4622 0.234037 12.7963 0.0910666 13.1602 0.0331324C13.524 -0.0248017 13.9011 0.00490445 14.2438 0.118492C14.5865 0.232079 14.8794 0.424443 15.0855 0.671242C15.2915 0.918041 15.4014 1.20818 15.4012 1.50495Z" fill="#FFC404"/>
</svg>
