<svg width="26" height="26" viewBox="0 0 26 26" fill="none" xmlns="http://www.w3.org/2000/svg">
<g clip-path="url(#clip0_47_5)">
<path d="M24.65 13.0729C24.65 6.43813 19.2714 1.05955 12.6366 1.05955C6.0018 1.05955 0.623222 6.43813 0.623222 13.0729C0.623222 19.0692 5.01635 24.0392 10.7595 24.9404V16.5456H7.70925V13.0729H10.7595V10.4262C10.7595 7.41539 12.553 5.75228 15.2972 5.75228C16.6115 5.75228 17.9863 5.98692 17.9863 5.98692V8.94334H16.4715C14.9791 8.94334 14.5137 9.86938 14.5137 10.8194V13.0729H17.8456L17.3129 16.5456H14.5137V24.9404C20.2569 24.0392 24.65 19.0692 24.65 13.0729Z" fill="#1877F2"/>
</g>
<defs>
<clipPath id="clip0_47_5">
<rect width="25.0714" height="25.0714" fill="white" transform="translate(0.100929 0.464283)"/>
</clipPath>
</defs>
</svg>
